<svg width="106" height="106" viewBox="0 0 106 106" fill="none" xmlns="http://www.w3.org/2000/svg">
<path d="M7.45092 7.45092C0 14.9018 0 26.8954 0 50.88V55.12C0 79.1046 0 91.0983 7.45092 98.549C14.9018 106 26.8954 106 50.88 106H55.12C79.1046 106 91.0983 106 98.549 98.549C106 91.0983 106 79.1046 106 55.12V50.88C106 26.8954 106 14.9018 98.549 7.45092C91.0983 0 79.1046 0 55.12 0H50.88C26.8954 0 14.9018 0 7.45092 7.45092ZM17.8875 32.2417H29.9892C30.3867 52.47 39.3083 61.0383 46.375 62.805V32.2417H57.77V49.6875C64.7483 48.9367 72.08 40.9867 74.5533 32.2417H85.9483C85.016 36.777 83.158 41.071 80.4904 44.8557C77.8232 48.6403 74.4037 51.8338 70.4458 54.2367C74.8649 56.4306 78.7682 59.5375 81.8973 63.3518C85.0264 67.1664 87.3104 71.6016 88.5983 76.3643H76.055C74.8992 72.2272 72.5471 68.5238 69.294 65.7186C66.0411 62.9136 62.032 61.1317 57.77 60.5967V76.3643H56.4008C32.2417 76.3643 18.4617 59.8017 17.8875 32.2417Z" fill="black"/>
</svg>
