<svg width="55" height="50" viewBox="0 0 55 50" fill="none" xmlns="http://www.w3.org/2000/svg">
<path d="M24.1866 3.42757C24.7691 2.27522 24.3299 0.859202 23.2127 0.263497C22.0955 -0.332208 20.7014 0.117012 20.1189 1.25959L11.2292 18.7499H3.05556C1.36545 18.7499 0 20.1464 0 21.8749C0 23.6034 1.36545 24.9999 3.05556 24.9999L8.01128 45.2637C8.68924 48.0469 11.1337 50 13.941 50H41.059C43.8663 50 46.3108 48.0469 46.9887 45.2637L51.9444 24.9999C53.6345 24.9999 55 23.6034 55 21.8749C55 20.1464 53.6345 18.7499 51.9444 18.7499H43.7708L34.8811 1.25959C34.2986 0.117012 32.9141 -0.332208 31.7873 0.263497C30.6606 0.859202 30.2309 2.27522 30.8134 3.42757L38.605 18.7499H16.395L24.1866 3.42757ZM18.3333 29.6874V39.0625C18.3333 39.9218 17.6458 40.625 16.8056 40.625C15.9653 40.625 15.2778 39.9218 15.2778 39.0625V29.6874C15.2778 28.8281 15.9653 28.1249 16.8056 28.1249C17.6458 28.1249 18.3333 28.8281 18.3333 29.6874ZM27.5 28.1249C28.3403 28.1249 29.0278 28.8281 29.0278 29.6874V39.0625C29.0278 39.9218 28.3403 40.625 27.5 40.625C26.6597 40.625 25.9722 39.9218 25.9722 39.0625V29.6874C25.9722 28.8281 26.6597 28.1249 27.5 28.1249ZM39.7222 29.6874V39.0625C39.7222 39.9218 39.0347 40.625 38.1944 40.625C37.3542 40.625 36.6667 39.9218 36.6667 39.0625V29.6874C36.6667 28.8281 37.3542 28.1249 38.1944 28.1249C39.0347 28.1249 39.7222 28.8281 39.7222 29.6874Z" fill="black"/>
</svg>
