<svg width="80" height="106" viewBox="0 0 80 106" fill="none" xmlns="http://www.w3.org/2000/svg">
<path d="M44.7725 103.618C55.4208 90.2923 79.7063 57.9946 79.7063 39.8531C79.7063 17.8509 61.8554 0 39.8531 0C17.8509 0 0 17.8509 0 39.8531C0 57.9946 24.2855 90.2923 34.9338 103.618C37.4869 106.794 42.2194 106.794 44.7725 103.618ZM39.8531 26.5688C43.3764 26.5688 46.7553 27.9684 49.2466 30.4597C51.7379 32.951 53.1375 36.3299 53.1375 39.8531C53.1375 43.3764 51.7379 46.7553 49.2466 49.2466C46.7553 51.7379 43.3764 53.1375 39.8531 53.1375C36.3299 53.1375 32.951 51.7379 30.4597 49.2466C27.9684 46.7553 26.5688 43.3764 26.5688 39.8531C26.5688 36.3299 27.9684 32.951 30.4597 30.4597C32.951 27.9684 36.3299 26.5688 39.8531 26.5688Z" fill="black"/>
</svg>
