<svg width="106" height="80" viewBox="0 0 106 80" fill="none" xmlns="http://www.w3.org/2000/svg">
<path d="M9.9375 0C4.45117 0 0 4.45117 0 9.9375C0 13.0637 1.46992 16.0035 3.975 17.8875L49.025 51.675C51.3852 53.4348 54.6148 53.4348 56.975 51.675L102.025 17.8875C104.53 16.0035 106 13.0637 106 9.9375C106 4.45117 101.549 0 96.0625 0H9.9375ZM0 23.1875V66.25C0 73.5582 5.9418 79.5 13.25 79.5H92.75C100.058 79.5 106 73.5582 106 66.25V23.1875L60.95 56.975C56.2297 60.5152 49.7703 60.5152 45.05 56.975L0 23.1875Z" fill="black"/>
</svg>
