<svg width="106" height="106" viewBox="0 0 106 106" fill="none" xmlns="http://www.w3.org/2000/svg">
<path d="M103.103 1.15993C105.194 2.60884 106.291 5.1134 105.897 7.61796L92.6501 93.7251C92.3397 95.7329 91.1184 97.4923 89.3383 98.4858C87.5582 99.4794 85.4262 99.6036 83.5427 98.817L58.7868 88.5297L44.6081 103.868C42.7659 105.875 39.8681 106.538 37.3222 105.544C34.7762 104.551 33.1203 102.087 33.1203 99.3552V82.051C33.1203 81.223 33.4308 80.4365 33.9896 79.8362L68.6809 41.978C69.8814 40.674 69.84 38.6662 68.5981 37.4243C67.3562 36.1824 65.3484 36.0996 64.0443 37.2794L21.9429 74.6822L3.66585 65.5333C1.47177 64.4363 0.0642524 62.2422 0.0021559 59.7997C-0.0599406 57.3573 1.22339 55.0804 3.33467 53.8592L96.0654 0.870142C98.2802 -0.392486 101.012 -0.268293 103.103 1.15993Z" fill="black"/>
</svg>
