<svg width="106" height="106" viewBox="0 0 106 106" fill="none" xmlns="http://www.w3.org/2000/svg">
<path d="M34.138 5.09741C32.5439 1.2468 28.3413 -0.802719 24.3251 0.294499L6.10715 5.26303C2.50497 6.25674 0 9.52769 0 13.2541C0 64.4714 41.5286 106 92.7459 106C96.4723 106 99.7433 103.495 100.737 99.8929L105.706 81.6749C106.803 77.6587 104.753 73.4561 100.903 71.8621L81.0285 63.5812C77.654 62.1734 73.7413 63.1464 71.4433 65.9826L63.0797 76.1888C48.5053 69.295 36.705 57.4947 29.8112 42.9204L40.0174 34.5774C42.8536 32.2587 43.8266 28.3667 42.4188 24.9922L34.138 5.11812V5.09741Z" fill="black"/>
</svg>
