<svg width="45" height="59" viewBox="0 0 45 59" fill="none" xmlns="http://www.w3.org/2000/svg">
<path d="M25.2773 57.6743C31.2891 50.257 45 32.28 45 22.1824C45 9.93587 34.9219 0 22.5 0C10.0781 0 0 9.93587 0 22.1824C0 32.28 13.7109 50.257 19.7227 57.6743C21.1641 59.4419 23.8359 59.4419 25.2773 57.6743ZM22.5 14.7883C24.4891 14.7883 26.3968 15.5673 27.8033 16.954C29.2098 18.3406 30 20.2214 30 22.1824C30 24.1435 29.2098 26.0242 27.8033 27.4108C26.3968 28.7975 24.4891 29.5765 22.5 29.5765C20.5109 29.5765 18.6032 28.7975 17.1967 27.4108C15.7902 26.0242 15 24.1435 15 22.1824C15 20.2214 15.7902 18.3406 17.1967 16.954C18.6032 15.5673 20.5109 14.7883 22.5 14.7883Z" fill="black"/>
</svg>
