<svg width="93" height="106" viewBox="0 0 93 106" fill="none" xmlns="http://www.w3.org/2000/svg">
<path d="M93 43.4689C83.8582 43.4907 74.9405 40.6475 67.5069 35.3409V72.3509C67.5043 79.2056 65.4035 85.8961 61.4852 91.5279C57.5669 97.1596 52.0179 101.464 45.5803 103.866C39.1427 106.268 32.1232 106.652 25.4605 104.968C18.7978 103.284 12.8094 99.6115 8.29617 94.4417C3.78291 89.2718 0.959846 82.851 0.204477 76.0379C-0.550892 69.2247 0.797434 62.344 4.06917 56.3157C7.3409 50.2874 12.3801 45.3989 18.5129 42.3038C24.6458 39.2088 31.5799 38.0547 38.3882 38.9959V57.6107C35.2727 56.6334 31.9272 56.6628 28.8295 57.6948C25.7318 58.7268 23.0403 60.7085 21.1393 63.357C19.2384 66.0055 18.2251 69.1853 18.2444 72.4423C18.2636 75.6993 19.3143 78.867 21.2465 81.4929C23.1786 84.1189 25.8933 86.0689 29.003 87.0644C32.1127 88.0599 35.4583 88.05 38.562 87.0362C41.6657 86.0224 44.3688 84.0564 46.2854 81.4191C48.2019 78.7818 49.2338 75.608 49.2337 72.3509V0H67.5069C67.4942 1.53892 67.6235 3.07575 67.8931 4.59105C68.5281 7.97372 69.8483 11.1916 71.7731 14.048C73.6979 16.9044 76.1868 19.3391 79.0875 21.2033C83.2143 23.9246 88.0526 25.375 93 25.374V43.4689Z" fill="black"/>
</svg>
